<svg width="127" height="23" viewBox="0 0 127 23" fill="none" xmlns="http://www.w3.org/2000/svg">
<path d="M5.0062 4.95703C6.2611 4.95703 7.30902 5.36568 8.15011 6.18295C8.99114 7.0003 9.41162 8.01863 9.41162 9.23814C9.41162 10.4576 8.99114 11.4759 8.15011 12.2933C7.30902 13.1106 6.2611 13.5192 5.0062 13.5192H1.40173V18.5787H0V4.95703H5.0062ZM5.0062 12.2349C5.87392 12.2349 6.58818 11.956 7.14883 11.3981C7.72287 10.8273 8.00989 10.1073 8.00989 9.23814C8.00989 8.36891 7.72287 7.6554 7.14883 7.09757C6.58818 6.52678 5.87392 6.24135 5.0062 6.24135H1.40173V12.2349H5.0062Z" fill="#D4DEFE"/>
<path d="M12.5375 10.4641C13.1516 9.28362 14.2062 8.69336 15.7014 8.69336V9.93872C14.7936 9.93872 14.0393 10.1982 13.4386 10.7171C12.8378 11.236 12.5375 12.0533 12.5375 13.169V18.5788H11.2158V8.84903H12.5375V10.4641Z" fill="#D4DEFE"/>
<path d="M25.0966 17.3525C24.082 18.3255 22.8405 18.812 21.372 18.812C19.9035 18.812 18.6553 18.3255 17.6273 17.3525C16.6128 16.3666 16.1055 15.1536 16.1055 13.7136C16.1055 12.2736 16.6128 11.0671 17.6273 10.0942C18.6553 9.10822 19.9035 8.61523 21.372 8.61523C22.8405 8.61523 24.082 9.10822 25.0966 10.0942C26.1246 11.0671 26.6385 12.2736 26.6385 13.7136C26.6385 15.1536 26.1246 16.3666 25.0966 17.3525ZM18.5685 16.4574C19.3295 17.1969 20.264 17.5666 21.372 17.5666C22.48 17.5666 23.4145 17.1969 24.1755 16.4574C24.9364 15.705 25.3168 14.7904 25.3168 13.7136C25.3168 12.6369 24.9364 11.7288 24.1755 10.9893C23.4145 10.2368 22.48 9.86066 21.372 9.86066C20.264 9.86066 19.3295 10.2368 18.5685 10.9893C17.8076 11.7288 17.4271 12.6369 17.4271 13.7136C17.4271 14.7904 17.8076 15.705 18.5685 16.4574Z" fill="#D4DEFE"/>
<path d="M35.7879 8.84905V18.5788H34.4662V10.0945H30.3812V18.5788H29.0595V10.0945H27.3574V8.84905H29.0595V8.45984C29.0595 5.96905 30.4612 4.72363 33.2647 4.72363C33.8254 4.72363 34.4662 4.80147 35.1871 4.95714V6.12473C34.5597 6.02094 33.9189 5.96905 33.2647 5.96905C32.2635 5.96905 31.5293 6.15715 31.062 6.53334C30.6081 6.90959 30.3812 7.55174 30.3812 8.45984V8.84905H35.7879Z" fill="#D4DEFE"/>
<path d="M43.0487 18.812C41.5402 18.812 40.2853 18.3255 39.2841 17.3525C38.2828 16.3666 37.7822 15.1536 37.7822 13.7136C37.7822 12.2736 38.2828 11.0671 39.2841 10.0942C40.2853 9.10822 41.5402 8.61523 43.0487 8.61523C44.0366 8.61523 44.9244 8.84877 45.712 9.31578C46.4997 9.76983 47.0737 10.3861 47.4342 11.1644L46.3528 11.7677C46.0858 11.1839 45.652 10.7234 45.0512 10.3861C44.4638 10.0358 43.7963 9.86066 43.0487 9.86066C41.9407 9.86066 41.0062 10.2368 40.2453 10.9893C39.4843 11.7288 39.1038 12.6369 39.1038 13.7136C39.1038 14.7904 39.4843 15.705 40.2453 16.4574C41.0062 17.1969 41.9407 17.5666 43.0487 17.5666C43.7963 17.5666 44.4638 17.3979 45.0512 17.0607C45.6386 16.7104 46.0992 16.2434 46.4329 15.6596L47.5343 16.2823C47.1204 17.0607 46.513 17.6769 45.712 18.131C44.911 18.585 44.0232 18.812 43.0487 18.812Z" fill="#D4DEFE"/>
<path d="M50.5737 6.51367C50.3868 6.69526 50.1598 6.78608 49.8929 6.78608C49.6259 6.78608 49.3989 6.69526 49.212 6.51367C49.0251 6.33203 48.9316 6.11151 48.9316 5.852C48.9316 5.59256 49.0251 5.37202 49.212 5.1904C49.3989 5.00878 49.6259 4.91797 49.8929 4.91797C50.1598 4.91797 50.3868 5.00878 50.5737 5.1904C50.7606 5.37202 50.854 5.59256 50.854 5.852C50.854 6.11151 50.7606 6.33203 50.5737 6.51367ZM49.232 18.5785V8.84879H50.5537V18.5785H49.232Z" fill="#D4DEFE"/>
<path d="M57.7842 8.61523C59.266 8.61523 60.4604 9.12769 61.3685 10.1525C62.2898 11.1644 62.7505 12.3645 62.7505 13.7525C62.7505 13.8952 62.7366 14.0963 62.7101 14.3558H53.9193C54.0528 15.3417 54.48 16.1266 55.2008 16.7104C55.9351 17.2812 56.8362 17.5666 57.9043 17.5666C58.6651 17.5666 59.3192 17.4174 59.8664 17.119C60.4275 16.8077 60.8478 16.4055 61.1283 15.9126L62.2898 16.5742C61.8493 17.2617 61.2484 17.8066 60.4876 18.2088C59.7267 18.6109 58.8585 18.812 57.8841 18.812C56.3089 18.812 55.0273 18.332 54.0394 17.372C53.0515 16.412 52.5576 15.1926 52.5576 13.7136C52.5576 12.2607 53.0448 11.0477 54.0194 10.0747C54.9939 9.10171 56.2488 8.61523 57.7842 8.61523ZM57.7842 9.86066C56.7428 9.86066 55.8683 10.1655 55.1608 10.7753C54.4666 11.372 54.0528 12.1504 53.9193 13.1104H61.3887C61.2548 12.0855 60.8478 11.2877 60.1672 10.7169C59.486 10.1461 58.6917 9.86066 57.7842 9.86066Z" fill="#D4DEFE"/>
<path d="M69.3377 8.61523C70.5522 8.61523 71.5065 8.97847 72.2009 9.70499C72.9087 10.4185 73.2625 11.385 73.2625 12.6044V18.5785H71.9406V12.6044C71.9406 11.7353 71.7004 11.0606 71.2196 10.5807C70.7526 10.1006 70.0852 9.86066 69.217 9.86066C68.2559 9.86066 67.4754 10.159 66.8744 10.7558C66.2735 11.3396 65.9733 12.2477 65.9733 13.4801V18.5785H64.6514V8.84877H65.9733V10.3666C66.7209 9.19904 67.842 8.61523 69.3377 8.61523Z" fill="#D4DEFE"/>
<path d="M80.925 10.0947H78.0416V15.9909C78.0416 16.5229 78.1484 16.9056 78.362 17.139C78.5755 17.3596 78.8959 17.4763 79.3231 17.4893C79.7503 17.4893 80.2843 17.4763 80.925 17.4504V18.5791C79.5234 18.7866 78.4688 18.6893 77.761 18.2872C77.0671 17.885 76.7196 17.1196 76.7196 15.9909V10.0947H74.6172V8.84932H76.7196V6.5142L78.0416 6.125V8.84932H80.925V10.0947Z" fill="#D4DEFE"/>
<path d="M95.4148 4.33008H97.7175V17.9517H95.9153L89.3072 8.70845V17.9517H87.0039V4.33008H88.8061L95.4148 13.5733V4.33008ZM105.103 18.2047C103.634 18.2047 102.386 17.7117 101.358 16.7257C100.33 15.7398 99.8159 14.5268 99.8159 13.0868C99.8159 11.6468 100.33 10.4338 101.358 9.44793C102.386 8.46196 103.634 7.96898 105.103 7.96898C106.584 7.96898 107.832 8.46196 108.847 9.44793C109.875 10.4338 110.389 11.6468 110.389 13.0868C110.389 14.5268 109.875 15.7398 108.847 16.7257C107.832 17.7117 106.584 18.2047 105.103 18.2047ZM102.88 15.2858C103.48 15.8695 104.222 16.1614 105.103 16.1614C105.983 16.1614 106.725 15.8695 107.326 15.2858C107.926 14.702 108.227 13.969 108.227 13.0868C108.227 12.2047 107.926 11.4717 107.326 10.8879C106.725 10.3042 105.983 10.0122 105.103 10.0122C104.222 10.0122 103.48 10.3042 102.88 10.8879C102.279 11.4717 101.979 12.2047 101.979 13.0868C101.979 13.969 102.279 14.702 102.88 15.2858ZM123.488 8.22198H125.771L122.627 17.9517H120.504L118.421 11.3938L116.319 17.9517H114.196L111.053 8.22198H113.335L115.278 14.9355L117.381 8.22198H119.443L121.525 14.9355L123.488 8.22198Z" fill="white"/>
<path d="M125.168 18.2041C125.614 18.2041 125.975 17.8528 125.975 17.4194C125.975 16.9861 125.614 16.6348 125.168 16.6348C124.722 16.6348 124.36 16.9861 124.36 17.4194C124.36 17.8528 124.722 18.2041 125.168 18.2041Z" fill="white"/>
<path d="M49.7756 6.73218C50.4133 6.73218 50.9302 6.22987 50.9302 5.61023C50.9302 4.9906 50.4133 4.48828 49.7756 4.48828C49.138 4.48828 48.6211 4.9906 48.6211 5.61023C48.6211 6.22987 49.138 6.73218 49.7756 6.73218Z" fill="white"/>
</svg>
