<svg width="123" height="24" viewBox="0 0 123 24" fill="none" xmlns="http://www.w3.org/2000/svg">
<path fill-rule="evenodd" clip-rule="evenodd" d="M118.828 18.2212C118.902 19.0559 119.574 20.1185 120.739 20.1185H121.42C121.685 20.1185 121.901 19.9035 121.901 19.6409V4.75544H121.898C121.885 4.50466 121.676 4.30381 121.42 4.30381H119.309C119.053 4.30381 118.845 4.50466 118.832 4.75544H118.828V5.96496C117.535 4.38105 115.495 3.72363 113.45 3.72363C108.802 3.72363 105.033 7.46999 105.033 12.0916C105.033 16.7135 108.802 20.4599 113.45 20.4599V20.4604C115.495 20.4604 117.725 19.6715 118.828 18.2193V18.2212ZM113.458 17.5313C110.502 17.5313 108.105 15.096 108.105 12.0916C108.105 9.08772 110.502 6.65241 113.458 6.65241C116.416 6.65241 118.812 9.08772 118.812 12.0916C118.812 15.096 116.416 17.5313 113.458 17.5313Z" fill="#B0C4FF"/>
<path fill-rule="evenodd" clip-rule="evenodd" d="M102.364 18.7334L102.363 11.0308H102.363C102.363 6.6889 99.6077 3.75977 95.2138 3.75977C93.1163 3.75977 91.397 4.96549 90.7897 6.00124C90.6584 5.19137 90.2259 4.34007 88.8847 4.34007H88.2011C87.9366 4.34007 87.7207 4.55528 87.7207 4.81787V18.2588C87.7207 18.2592 87.7207 18.2602 87.7207 18.2609V19.7047H87.7233C87.7372 19.955 87.9459 20.1561 88.2013 20.1561H90.3126C90.3449 20.1561 90.3766 20.1523 90.4073 20.1464C90.4212 20.1437 90.4342 20.1382 90.4478 20.1344C90.4635 20.1296 90.4799 20.1259 90.4948 20.1198C90.5136 20.112 90.5306 20.1017 90.548 20.0919C90.5566 20.0867 90.5656 20.0831 90.5739 20.0777C90.5949 20.0641 90.6143 20.0479 90.6329 20.0313C90.636 20.0282 90.6396 20.0262 90.6427 20.0233C90.6637 20.0031 90.6829 19.9809 90.6998 19.9578C90.7 19.9574 90.7 19.9574 90.7 19.9574C90.7529 19.8853 90.7849 19.7984 90.7902 19.7047H90.793V10.9114C90.793 8.57948 92.6947 6.68889 95.0406 6.68889C97.3864 6.68889 99.2883 8.57948 99.2883 10.9114L99.2902 18.2614L99.2907 18.2588C99.2907 18.2653 99.2917 18.272 99.2917 18.279V19.7047H99.2946C99.3085 19.955 99.5171 20.1561 99.7723 20.1561H101.884C101.916 20.1561 101.948 20.1523 101.978 20.1464C101.991 20.1441 102.002 20.1391 102.015 20.1357C102.032 20.1307 102.05 20.1264 102.066 20.1198C102.083 20.1127 102.099 20.1027 102.116 20.0936C102.126 20.088 102.136 20.084 102.146 20.0777C102.165 20.0649 102.183 20.0495 102.2 20.0343C102.205 20.0302 102.21 20.0271 102.214 20.023C102.234 20.0038 102.252 19.9831 102.268 19.9614C102.269 19.9597 102.271 19.9584 102.272 19.9568C102.324 19.8853 102.356 19.799 102.361 19.7059C102.361 19.7052 102.362 19.7047 102.362 19.7047H102.364V18.7336L102.364 18.7334Z" fill="#B0C4FF"/>
<path fill-rule="evenodd" clip-rule="evenodd" d="M80.3756 18.2212C80.4494 19.0559 81.1216 20.1185 82.2862 20.1185H82.9675C83.2316 20.1185 83.4479 19.9035 83.4479 19.6409V4.75544H83.4451C83.4314 4.50466 83.2225 4.30381 82.9675 4.30381H80.8562C80.6009 4.30381 80.3923 4.50466 80.378 4.75544H80.3756V5.96496C79.0819 4.38105 77.0424 3.72363 74.9972 3.72363C70.3485 3.72363 66.5801 7.46998 66.5801 12.0917C66.5801 16.7135 70.3485 20.46 74.9972 20.46V20.4604C77.0424 20.4604 79.2714 19.6716 80.3754 18.2193L80.3756 18.2212ZM75.0055 17.5313C72.0491 17.5313 69.6521 15.0962 69.6521 12.0917C69.6521 9.08772 72.0491 6.65241 75.0055 6.65241C77.9622 6.65241 80.3587 9.08772 80.3587 12.0917C80.3587 15.0962 77.9622 17.5313 75.0055 17.5313Z" fill="#B0C4FF"/>
<path fill-rule="evenodd" clip-rule="evenodd" d="M54.095 16.0885C55.5044 17.0592 57.0429 17.5307 58.5213 17.5307C59.9298 17.5307 61.3859 16.8048 61.3859 15.5413C61.3859 13.8545 58.2131 13.5921 56.2196 12.9185C54.2257 12.245 52.5084 10.8527 52.5084 8.59787C52.5084 5.14765 55.6009 3.72266 58.4872 3.72266C60.3159 3.72266 62.2028 4.32215 63.4261 5.18093C63.8473 5.49827 63.5908 5.86262 63.5908 5.86262L62.4231 7.52059C62.2918 7.70733 62.0623 7.86868 61.7329 7.66655C61.4035 7.46457 60.2481 6.65152 58.4872 6.65152C56.7261 6.65152 55.6653 7.45999 55.6653 8.46207C55.6653 9.66373 57.044 10.0417 58.6588 10.4512C61.473 11.2053 64.5428 12.1117 64.5428 15.5413C64.5428 18.5812 61.6825 20.4599 58.5213 20.4599C56.1258 20.4599 54.0862 19.781 52.3756 18.5331C52.0192 18.1786 52.2681 17.8493 52.2681 17.8493L53.4301 16.1998C53.6666 15.8914 53.9646 15.9989 54.095 16.0885Z" fill="#B0C4FF"/>
<path fill-rule="evenodd" clip-rule="evenodd" d="M45.9773 18.2212C46.0511 19.0559 46.7233 20.1185 47.8878 20.1185H48.5692C48.8333 20.1185 49.0498 19.9035 49.0498 19.6409V4.75544H49.0468C49.033 4.50466 48.8244 4.30381 48.5692 4.30381H46.4579C46.2025 4.30381 45.994 4.50466 45.9798 4.75544H45.9773V5.96496C44.6837 4.38105 42.6442 3.72363 40.599 3.72363C35.9503 3.72363 32.1816 7.46998 32.1816 12.0917C32.1816 16.7135 35.9503 20.46 40.599 20.46V20.4604C42.6442 20.4604 44.873 19.6716 45.977 18.2193L45.9773 18.2212ZM40.6073 17.5313C37.6506 17.5313 35.2538 15.0962 35.2538 12.0917C35.2538 9.08772 37.6506 6.65241 40.6073 6.65241C43.5638 6.65241 45.9604 9.08772 45.9604 12.0917C45.9604 15.0962 43.5638 17.5313 40.6073 17.5313Z" fill="#B0C4FF"/>
<path fill-rule="evenodd" clip-rule="evenodd" d="M20.3815 12.6605C17.2532 12.6605 14.7169 15.1798 14.7169 18.2877C14.7169 21.3953 17.2532 23.9146 20.3815 23.9146C23.51 23.9146 26.0461 21.3953 26.0461 18.2877C26.0461 15.1798 23.51 12.6605 20.3815 12.6605ZM5.66457 12.6611C2.53614 12.6611 0 15.1798 0 18.2877C0 21.3953 2.53614 23.9146 5.66457 23.9146C8.79313 23.9146 11.3294 21.3953 11.3294 18.2877C11.3294 15.1798 8.79313 12.6611 5.66457 12.6611ZM18.6875 5.62677C18.6875 8.73465 16.1515 11.2541 13.0231 11.2541C9.89453 11.2541 7.35852 8.73465 7.35852 5.62677C7.35852 2.51952 9.89453 0 13.0231 0C16.1515 0 18.6875 2.51952 18.6875 5.62677Z" fill="#B0C4FF"/>
</svg>
