<svg width="41" height="38" viewBox="0 0 41 38" fill="none" xmlns="http://www.w3.org/2000/svg">
<rect x="0.5" y="0.5" width="40" height="37" rx="18.5" fill="white"/>
<path d="M20.74 17.805C21.54 17.955 22.195 18.3 22.705 18.84C23.215 19.38 23.47 20.065 23.47 20.895C23.47 21.915 23.12 22.72 22.42 23.31C21.72 23.9 20.87 24.195 19.87 24.195C19.07 24.195 18.36 24.015 17.74 23.655C17.12 23.285 16.68 22.755 16.42 22.065L17.59 21.375C17.9 22.345 18.66 22.83 19.87 22.83C20.52 22.83 21.05 22.66 21.46 22.32C21.87 21.98 22.075 21.505 22.075 20.895C22.075 20.285 21.87 19.81 21.46 19.47C21.05 19.12 20.52 18.945 19.87 18.945H19.51L18.955 18.09L21.385 14.805H16.72V13.5H23.02V14.73L20.74 17.805Z" fill="#003A88"/>
<rect x="0.5" y="0.5" width="40" height="37" rx="18.5" stroke="#003A88"/>
</svg>
