<svg width="40" height="38" viewBox="0 0 40 38" fill="none" xmlns="http://www.w3.org/2000/svg">
<rect x="0.5" y="0.5" width="39" height="37" rx="18.5" fill="white"/>
<path d="M16.54 24V22.86L20.245 19.08C21.235 18.09 21.73 17.24 21.73 16.53C21.73 15.94 21.55 15.48 21.19 15.15C20.83 14.82 20.39 14.655 19.87 14.655C18.88 14.655 18.16 15.125 17.71 16.065L16.54 15.375C16.87 14.695 17.325 14.18 17.905 13.83C18.495 13.48 19.145 13.305 19.855 13.305C20.735 13.305 21.5 13.595 22.15 14.175C22.8 14.755 23.125 15.535 23.125 16.515C23.125 17.575 22.5 18.73 21.25 19.98L18.565 22.65H23.32V24H16.54Z" fill="#003A88"/>
<rect x="0.5" y="0.5" width="39" height="37" rx="18.5" stroke="#003A88"/>
</svg>
