<svg width="17" height="17" viewBox="0 0 17 17" fill="none" xmlns="http://www.w3.org/2000/svg">
<g clip-path="url(#clip0_922_32)">
<path d="M8.5 13.8125C11.434 13.8125 13.8125 11.434 13.8125 8.5C13.8125 5.56598 11.434 3.1875 8.5 3.1875C5.56598 3.1875 3.1875 5.56598 3.1875 8.5C3.1875 11.434 5.56598 13.8125 8.5 13.8125Z" stroke="#0D01B8" stroke-width="1.5" stroke-linecap="round" stroke-linejoin="round"/>
<path d="M8.5 10.625C9.67364 10.625 10.625 9.67364 10.625 8.5C10.625 7.32636 9.67364 6.375 8.5 6.375C7.32636 6.375 6.375 7.32636 6.375 8.5C6.375 9.67364 7.32636 10.625 8.5 10.625Z" stroke="#0D01B8" stroke-width="1.5" stroke-linecap="round" stroke-linejoin="round"/>
<path d="M8.5 2.83329V1.41663" stroke="#0D01B8" stroke-width="1.5" stroke-linecap="round" stroke-linejoin="round"/>
<path d="M2.83341 8.5H1.41675" stroke="#0D01B8" stroke-width="1.5" stroke-linecap="round" stroke-linejoin="round"/>
<path d="M8.5 14.1666V15.5833" stroke="#0D01B8" stroke-width="1.5" stroke-linecap="round" stroke-linejoin="round"/>
<path d="M14.1667 8.5H15.5834" stroke="#0D01B8" stroke-width="1.5" stroke-linecap="round" stroke-linejoin="round"/>
</g>
<defs>
<clipPath id="clip0_922_32">
<rect width="17" height="17" fill="white"/>
</clipPath>
</defs>
</svg>
