<svg width="21" height="21" viewBox="0 0 21 21" fill="none" xmlns="http://www.w3.org/2000/svg">
<path d="M10.5 16.75C13.9517 16.75 16.75 13.9517 16.75 10.5C16.75 7.04822 13.9517 4.25 10.5 4.25C7.04822 4.25 4.25 7.04822 4.25 10.5C4.25 13.9517 7.04822 16.75 10.5 16.75Z" stroke="#000929" stroke-width="1.5" stroke-linecap="round" stroke-linejoin="round"/>
<path d="M10.5 13C11.8807 13 13 11.8807 13 10.5C13 9.11925 11.8807 8 10.5 8C9.11925 8 8 9.11925 8 10.5C8 11.8807 9.11925 13 10.5 13Z" stroke="#000929" stroke-width="1.5" stroke-linecap="round" stroke-linejoin="round"/>
<path d="M10.5 3.83329V2.16663" stroke="#000929" stroke-width="1.5" stroke-linecap="round" stroke-linejoin="round"/>
<path d="M3.83341 10.5H2.16675" stroke="#000929" stroke-width="1.5" stroke-linecap="round" stroke-linejoin="round"/>
<path d="M10.5 17.1666V18.8333" stroke="#000929" stroke-width="1.5" stroke-linecap="round" stroke-linejoin="round"/>
<path d="M17.1667 10.5H18.8334" stroke="#000929" stroke-width="1.5" stroke-linecap="round" stroke-linejoin="round"/>
</svg>
