<svg width="200" height="37" viewBox="0 0 200 37" fill="none" xmlns="http://www.w3.org/2000/svg">
<path d="M7.88377 7.97461C9.86 7.97461 11.5103 8.632 12.8348 9.94675C14.1593 11.2616 14.8215 12.8998 14.8215 14.8616C14.8215 16.8233 14.1593 18.4615 12.8348 19.7764C11.5103 21.0911 9.86 21.7486 7.88377 21.7486H2.20745V29.8877H0V7.97461H7.88377ZM7.88377 19.6824C9.25027 19.6824 10.3751 19.2337 11.258 18.3364C12.162 17.4181 12.614 16.2598 12.614 14.8616C12.614 13.4633 12.162 12.3155 11.258 11.4181C10.3751 10.4999 9.25027 10.0407 7.88377 10.0407H2.20745V19.6824H7.88377Z" fill="#D4DEFE"/>
<path d="M19.7435 16.834C20.7106 14.9349 22.3714 13.9854 24.726 13.9854V15.9888C23.2964 15.9888 22.1086 16.4062 21.1626 17.241C20.2165 18.0757 19.7435 19.3905 19.7435 21.1854V29.888H17.6621V14.2358H19.7435V16.834Z" fill="#D4DEFE"/>
<path d="M39.5216 27.916C37.9238 29.4812 35.9686 30.2639 33.656 30.2639C31.3435 30.2639 29.3778 29.4812 27.7589 27.916C26.1612 26.33 25.3623 24.3786 25.3623 22.0621C25.3623 19.7456 26.1612 17.8047 27.7589 16.2395C29.3778 14.6534 31.3435 13.8604 33.656 13.8604C35.9686 13.8604 37.9238 14.6534 39.5216 16.2395C41.1404 17.8047 41.9498 19.7456 41.9498 22.0621C41.9498 24.3786 41.1404 26.33 39.5216 27.916ZM29.2411 26.476C30.4395 27.6656 31.9111 28.2604 33.656 28.2604C35.4009 28.2604 36.8726 27.6656 38.0709 26.476C39.2693 25.2656 39.8684 23.7943 39.8684 22.0621C39.8684 20.3299 39.2693 18.8691 38.0709 17.6795C36.8726 16.469 35.4009 15.8639 33.656 15.8639C31.9111 15.8639 30.4395 16.469 29.2411 17.6795C28.0428 18.8691 27.4436 20.3299 27.4436 22.0621C27.4436 23.7943 28.0428 25.2656 29.2411 26.476Z" fill="#D4DEFE"/>
<path d="M56.3585 14.2361V29.8883H54.2773V16.2397H47.8441V29.8883H45.7627V16.2397H43.0823V14.2361H45.7627V13.61C45.7627 9.60311 47.9702 7.59961 52.3851 7.59961C53.2681 7.59961 54.2773 7.72482 55.4125 7.97526V9.85354C54.4244 9.68659 53.4153 9.60311 52.3851 9.60311C50.8084 9.60311 49.6521 9.9057 48.9163 10.5109C48.2015 11.1161 47.8441 12.1492 47.8441 13.61V14.2361H56.3585Z" fill="#D4DEFE"/>
<path d="M67.7942 30.2639C65.4186 30.2639 63.4423 29.4812 61.8656 27.916C60.2889 26.33 59.5005 24.3786 59.5005 22.0621C59.5005 19.7456 60.2889 17.8047 61.8656 16.2395C63.4423 14.6534 65.4186 13.8604 67.7942 13.8604C69.3499 13.8604 70.7479 14.236 71.9883 14.9873C73.2288 15.7178 74.1328 16.7091 74.7004 17.9612L72.9975 18.9317C72.577 17.9925 71.8938 17.2517 70.9477 16.7091C70.0227 16.1456 68.9715 15.8639 67.7942 15.8639C66.0492 15.8639 64.5776 16.469 63.3793 17.6795C62.1809 18.8691 61.5818 20.3299 61.5818 22.0621C61.5818 23.7943 62.1809 25.2656 63.3793 26.476C64.5776 27.6656 66.0492 28.2604 67.7942 28.2604C68.9715 28.2604 70.0227 27.989 70.9477 27.4465C71.8728 26.883 72.598 26.1317 73.1236 25.1925L74.858 26.1943C74.2063 27.4465 73.2498 28.4378 71.9883 29.1682C70.7269 29.8987 69.3289 30.2639 67.7942 30.2639Z" fill="#D4DEFE"/>
<path d="M79.6435 10.4791C79.3492 10.7712 78.9918 10.9173 78.5713 10.9173C78.1509 10.9173 77.7934 10.7712 77.4992 10.4791C77.2048 10.1869 77.0576 9.83215 77.0576 9.41468C77.0576 8.99732 77.2048 8.64254 77.4992 8.35037C77.7934 8.0582 78.1509 7.91211 78.5713 7.91211C78.9918 7.91211 79.3492 8.0582 79.6435 8.35037C79.9378 8.64254 80.085 8.99732 80.085 9.41468C80.085 9.83215 79.9378 10.1869 79.6435 10.4791ZM77.5306 29.8878V14.2356H79.612V29.8878H77.5306Z" fill="#D4DEFE"/>
<path d="M90.9982 13.8604C93.3318 13.8604 95.2127 14.6847 96.6427 16.3334C98.0936 17.9612 98.8191 19.8917 98.8191 22.1247C98.8191 22.3543 98.7972 22.6777 98.7554 23.0952H84.9117C85.1219 24.6812 85.7947 25.9438 86.9299 26.883C88.0862 27.8012 89.5052 28.2604 91.1872 28.2604C92.3854 28.2604 93.4154 28.0203 94.2772 27.5403C95.1609 27.0395 95.8227 26.3925 96.2645 25.5995L98.0936 26.6639C97.4 27.7699 96.4536 28.6465 95.2554 29.2934C94.0572 29.9404 92.69 30.2639 91.1554 30.2639C88.6749 30.2639 86.6566 29.4917 85.1009 27.9473C83.5452 26.403 82.7673 24.4413 82.7673 22.0621C82.7673 19.7248 83.5346 17.7734 85.0693 16.2082C86.6041 14.6429 88.5802 13.8604 90.9982 13.8604ZM90.9982 15.8639C89.3582 15.8639 87.9811 16.3542 86.8669 17.3352C85.7736 18.2951 85.1219 19.5473 84.9117 21.0917H96.6745C96.4636 19.443 95.8227 18.1595 94.7509 17.2412C93.6782 16.323 92.4272 15.8639 90.9982 15.8639Z" fill="#D4DEFE"/>
<path d="M109.194 13.8604C111.106 13.8604 112.609 14.4447 113.703 15.6134C114.817 16.7612 115.375 18.3161 115.375 20.2778V29.8882H113.293V20.2778C113.293 18.8795 112.915 17.7943 112.157 17.0221C111.422 16.2499 110.371 15.8639 109.004 15.8639C107.49 15.8639 106.261 16.3439 105.315 17.3039C104.368 18.243 103.896 19.7038 103.896 21.6865V29.8882H101.814V14.236H103.896V16.6778C105.073 14.7995 106.838 13.8604 109.194 13.8604Z" fill="#D4DEFE"/>
<path d="M127.44 16.2396H122.899V25.7248C122.899 26.5805 123.067 27.1961 123.404 27.5717C123.74 27.9266 124.245 28.1144 124.917 28.1352C125.59 28.1352 126.431 28.1144 127.44 28.0727V29.8883C125.233 30.2222 123.572 30.0657 122.457 29.4188C121.365 28.7718 120.817 27.5404 120.817 25.7248V16.2396H117.506V14.2361H120.817V10.4796L122.899 9.85352V14.2361H127.44V16.2396Z" fill="#D4DEFE"/>
<path d="M145.26 8.96484H148.886V30.8779H146.048L135.642 16.0083V30.8779H132.015V8.96484H134.853L145.26 23.8344V8.96484ZM160.516 31.2849C158.204 31.2849 156.238 30.4918 154.619 28.9057C153.001 27.3197 152.191 25.3683 152.191 23.0518C152.191 20.7353 153.001 18.7839 154.619 17.1979C156.238 15.6118 158.204 14.8187 160.516 14.8187C162.85 14.8187 164.816 15.6118 166.414 17.1979C168.033 18.7839 168.842 20.7353 168.842 23.0518C168.842 25.3683 168.033 27.3197 166.414 28.9057C164.816 30.4918 162.85 31.2849 160.516 31.2849ZM157.016 26.5892C157.962 27.5283 159.129 27.9979 160.516 27.9979C161.904 27.9979 163.071 27.5283 164.017 26.5892C164.963 25.6501 165.436 24.4709 165.436 23.0518C165.436 21.6327 164.963 20.4536 164.017 19.5144C163.071 18.5753 161.904 18.1057 160.516 18.1057C159.129 18.1057 157.962 18.5753 157.016 19.5144C156.07 20.4536 155.597 21.6327 155.597 23.0518C155.597 24.4709 156.07 25.6501 157.016 26.5892ZM189.47 15.2257H193.065L188.114 30.8779H184.771L181.491 20.3283L178.18 30.8779H174.837L169.886 15.2257H173.481L176.54 26.0258L179.852 15.2257H183.1L186.379 26.0258L189.47 15.2257Z" fill="white"/>
<path d="M194.114 31.2843C194.817 31.2843 195.386 30.7192 195.386 30.022C195.386 29.3249 194.817 28.7598 194.114 28.7598C193.412 28.7598 192.843 29.3249 192.843 30.022C192.843 30.7192 193.412 31.2843 194.114 31.2843Z" fill="white"/>
<path d="M78.3863 10.8295C79.3905 10.8295 80.2045 10.0214 80.2045 9.0246C80.2045 8.0278 79.3905 7.21973 78.3863 7.21973C77.3821 7.21973 76.5681 8.0278 76.5681 9.0246C76.5681 10.0214 77.3821 10.8295 78.3863 10.8295Z" fill="white"/>
</svg>
