<svg width="200" height="37" viewBox="0 0 200 37" fill="none" xmlns="http://www.w3.org/2000/svg">
<path d="M7.88377 7.97482C9.86 7.97482 11.5103 8.63221 12.8348 9.94696C14.1593 11.2618 14.8215 12.9 14.8215 14.8618C14.8215 16.8235 14.1593 18.4617 12.8348 19.7766C11.5103 21.0914 9.86 21.7488 7.88377 21.7488H2.20745V29.8879H0V7.97482H7.88377ZM7.88377 19.6827C9.25027 19.6827 10.3751 19.234 11.258 18.3366C12.162 17.4183 12.614 16.2601 12.614 14.8618C12.614 13.4635 12.162 12.3157 11.258 11.4183C10.3751 10.5001 9.25027 10.0409 7.88377 10.0409H2.20745V19.6827H7.88377Z" fill="#01081A"/>
<path d="M19.7435 16.8339C20.7106 14.9348 22.3714 13.9853 24.726 13.9853V15.9887C23.2964 15.9887 22.1086 16.4062 21.1626 17.2409C20.2165 18.0757 19.7435 19.3904 19.7435 21.1853V29.8879H17.6621V14.2357H19.7435V16.8339Z" fill="#01081A"/>
<path d="M39.5226 27.9157C37.9247 29.4809 35.9696 30.2636 33.657 30.2636C31.3445 30.2636 29.3787 29.4809 27.7599 27.9157C26.1622 26.3296 25.3633 24.3783 25.3633 22.0617C25.3633 19.7453 26.1622 17.8044 27.7599 16.2392C29.3787 14.6531 31.3445 13.86 33.657 13.86C35.9696 13.86 37.9247 14.6531 39.5226 16.2392C41.1414 17.8044 41.9507 19.7453 41.9507 22.0617C41.9507 24.3783 41.1414 26.3296 39.5226 27.9157ZM29.2421 26.4757C30.4405 27.6653 31.9121 28.2601 33.657 28.2601C35.4019 28.2601 36.8736 27.6653 38.0719 26.4757C39.2703 25.2652 39.8694 23.794 39.8694 22.0617C39.8694 20.3296 39.2703 18.8687 38.0719 17.6791C36.8736 16.4687 35.4019 15.8635 33.657 15.8635C31.9121 15.8635 30.4405 16.4687 29.2421 17.6791C28.0437 18.8687 27.4446 20.3296 27.4446 22.0617C27.4446 23.794 28.0437 25.2652 29.2421 26.4757Z" fill="#01081A"/>
<path d="M56.3583 14.2357V29.8879H54.277V16.2392H47.8439V29.8879H45.7625V16.2392H43.082V14.2357H45.7625V13.6096C45.7625 9.60269 47.9699 7.59918 52.3849 7.59918C53.2679 7.59918 54.277 7.7244 55.4122 7.97483V9.85311C54.4241 9.68616 53.415 9.60269 52.3849 9.60269C50.8081 9.60269 49.6518 9.90527 48.916 10.5105C48.2012 11.1157 47.8439 12.1487 47.8439 13.6096V14.2357H56.3583Z" fill="#01081A"/>
<path d="M67.7937 30.2636C65.4181 30.2636 63.4418 29.4809 61.8651 27.9157C60.2884 26.3296 59.5 24.3783 59.5 22.0617C59.5 19.7453 60.2884 17.8044 61.8651 16.2392C63.4418 14.6531 65.4181 13.86 67.7937 13.86C69.3495 13.86 70.7474 14.2357 71.9878 14.987C73.2283 15.7174 74.1323 16.7087 74.6999 17.9609L72.997 18.9314C72.5765 17.9922 71.8933 17.2514 70.9472 16.7087C70.0222 16.1453 68.971 15.8635 67.7937 15.8635C66.0487 15.8635 64.5771 16.4687 63.3788 17.6791C62.1805 18.8687 61.5813 20.3296 61.5813 22.0617C61.5813 23.794 62.1805 25.2652 63.3788 26.4757C64.5771 27.6653 66.0487 28.2601 67.7937 28.2601C68.971 28.2601 70.0222 27.9887 70.9472 27.4461C71.8723 26.8827 72.5975 26.1314 73.1231 25.1922L74.8575 26.1939C74.2058 27.4461 73.2493 28.4375 71.9878 29.1679C70.7264 29.8983 69.3284 30.2636 67.7937 30.2636Z" fill="#01081A"/>
<path d="M79.6445 10.4792C79.3501 10.7713 78.9928 10.9174 78.5723 10.9174C78.1519 10.9174 77.7944 10.7713 77.5001 10.4792C77.2058 10.187 77.0586 9.83224 77.0586 9.41477C77.0586 8.99741 77.2058 8.64264 77.5001 8.35046C77.7944 8.05829 78.1519 7.9122 78.5723 7.9122C78.9928 7.9122 79.3501 8.05829 79.6445 8.35046C79.9388 8.64264 80.086 8.99741 80.086 9.41477C80.086 9.83224 79.9388 10.187 79.6445 10.4792ZM77.5316 29.8879V14.2357H79.613V29.8879H77.5316Z" fill="#01081A"/>
<path d="M90.9984 13.86C93.332 13.86 95.2129 14.6844 96.6429 16.3331C98.0939 17.9609 98.8193 19.8914 98.8193 22.1244C98.8193 22.354 98.7975 22.6774 98.7557 23.0949H84.9119C85.1221 24.6809 85.7949 25.9435 86.9301 26.8827C88.0865 27.8009 89.5055 28.2601 91.1875 28.2601C92.3857 28.2601 93.4157 28.02 94.2775 27.54C95.1611 27.0391 95.8229 26.3922 96.2648 25.5992L98.0939 26.6636C97.4002 27.7696 96.4539 28.6461 95.2557 29.2931C94.0575 29.94 92.6902 30.2636 91.1557 30.2636C88.6751 30.2636 86.6569 29.4913 85.1011 27.947C83.5454 26.4027 82.7676 24.4409 82.7676 22.0617C82.7676 19.7244 83.5349 17.7731 85.0696 16.2079C86.6043 14.6426 88.5805 13.86 90.9984 13.86ZM90.9984 15.8635C89.3584 15.8635 87.9813 16.3539 86.8671 17.3349C85.7738 18.2948 85.1221 19.547 84.9119 21.0914H96.6748C96.4639 19.4427 95.8229 18.1591 94.7511 17.2409C93.6784 16.3227 92.4275 15.8635 90.9984 15.8635Z" fill="#01081A"/>
<path d="M109.194 13.86C111.107 13.86 112.61 14.4443 113.704 15.6131C114.818 16.7609 115.375 18.3157 115.375 20.2774V29.8879H113.294V20.2774C113.294 18.8792 112.915 17.7939 112.158 17.0218C111.423 16.2496 110.372 15.8635 109.004 15.8635C107.491 15.8635 106.262 16.3435 105.315 17.3035C104.369 18.2426 103.896 19.7035 103.896 21.6861V29.8879H101.814V14.2357H103.896V16.6774C105.074 14.7992 106.839 13.86 109.194 13.86Z" fill="#01081A"/>
<path d="M127.441 16.2392H122.901V25.7244C122.901 26.5801 123.069 27.1957 123.405 27.5713C123.741 27.9261 124.246 28.1139 124.919 28.1348C125.591 28.1348 126.432 28.1139 127.441 28.0723V29.8879C125.234 30.2218 123.573 30.0653 122.459 29.4183C121.366 28.7714 120.819 27.54 120.819 25.7244V16.2392H117.508V14.2357H120.819V10.4792L122.901 9.85309V14.2357H127.441V16.2392Z" fill="#01081A"/>
<path d="M147.259 7.965H150.885V29.878H148.047L137.641 15.0085V29.878H134.014V7.965H136.852L147.259 22.8346V7.965ZM162.515 30.285C160.203 30.285 158.237 29.492 156.618 27.9059C155 26.3198 154.19 24.3685 154.19 22.0519C154.19 19.7354 155 17.7841 156.618 16.1981C158.237 14.6119 160.203 13.8189 162.515 13.8189C164.849 13.8189 166.815 14.6119 168.413 16.1981C170.032 17.7841 170.841 19.7354 170.841 22.0519C170.841 24.3685 170.032 26.3198 168.413 27.9059C166.815 29.492 164.849 30.285 162.515 30.285ZM159.015 25.5894C159.961 26.5285 161.128 26.998 162.515 26.998C163.903 26.998 165.07 26.5285 166.016 25.5894C166.962 24.6502 167.435 23.4711 167.435 22.0519C167.435 20.6328 166.962 19.4537 166.016 18.5145C165.07 17.5755 163.903 17.1058 162.515 17.1058C161.128 17.1058 159.961 17.5755 159.015 18.5145C158.069 19.4537 157.596 20.6328 157.596 22.0519C157.596 23.4711 158.069 24.6502 159.015 25.5894ZM191.469 14.2259H195.064L190.113 29.878H186.77L183.49 19.3284L180.179 29.878H176.836L171.885 14.2259H175.48L178.539 25.0259L181.851 14.2259H185.099L188.378 25.0259L191.469 14.2259Z" fill="#003A88"/>
<path d="M197.115 29.2847C197.818 29.2847 198.387 28.7196 198.387 28.0225C198.387 27.3253 197.818 26.7602 197.115 26.7602C196.413 26.7602 195.844 27.3253 195.844 28.0225C195.844 28.7196 196.413 29.2847 197.115 29.2847Z" fill="#003A88"/>
<path d="M78.3865 10.8293C79.3907 10.8293 80.2047 10.0212 80.2047 9.02439C80.2047 8.02758 79.3907 7.21951 78.3865 7.21951C77.3824 7.21951 76.5684 8.02758 76.5684 9.02439C76.5684 10.0212 77.3824 10.8293 78.3865 10.8293Z" fill="#003A88"/>
</svg>
