<svg width="24" height="25" viewBox="0 0 24 25" fill="none" xmlns="http://www.w3.org/2000/svg">
<path d="M19.9 14H4.1C2.6 14 2 14.64 2 16.23V20.27C2 21.86 2.6 22.5 4.1 22.5H19.9C21.4 22.5 22 21.86 22 20.27V16.23C22 14.64 21.4 14 19.9 14Z" stroke="#606060" stroke-width="1.5" stroke-linecap="round" stroke-linejoin="round"/>
<path d="M19.9 2.5H4.1C2.6 2.5 2 3.14 2 4.73V8.77C2 10.36 2.6 11 4.1 11H19.9C21.4 11 22 10.36 22 8.77V4.73C22 3.14 21.4 2.5 19.9 2.5Z" stroke="#606060" stroke-width="1.5" stroke-linecap="round" stroke-linejoin="round"/>
</svg>
