<svg width="200" height="37" viewBox="0 0 200 37" fill="none" xmlns="http://www.w3.org/2000/svg">
<path d="M7.88377 7.97461C9.86 7.97461 11.5103 8.632 12.8348 9.94675C14.1593 11.2616 14.8215 12.8998 14.8215 14.8616C14.8215 16.8233 14.1593 18.4615 12.8348 19.7764C11.5103 21.0911 9.86 21.7486 7.88377 21.7486H2.20745V29.8877H0V7.97461H7.88377ZM7.88377 19.6824C9.25027 19.6824 10.3751 19.2337 11.258 18.3364C12.162 17.4181 12.614 16.2598 12.614 14.8616C12.614 13.4633 12.162 12.3155 11.258 11.4181C10.3751 10.4999 9.25027 10.0407 7.88377 10.0407H2.20745V19.6824H7.88377Z" fill="#D4DEFE"/>
<path d="M19.7435 16.834C20.7106 14.9349 22.3714 13.9854 24.726 13.9854V15.9888C23.2964 15.9888 22.1086 16.4062 21.1626 17.241C20.2165 18.0757 19.7435 19.3905 19.7435 21.1854V29.888H17.6621V14.2358H19.7435V16.834Z" fill="#D4DEFE"/>
<path d="M39.5216 27.9155C37.9238 29.4807 35.9686 30.2634 33.656 30.2634C31.3435 30.2634 29.3778 29.4807 27.7589 27.9155C26.1612 26.3295 25.3623 24.3782 25.3623 22.0616C25.3623 19.7451 26.1612 17.8042 27.7589 16.2391C29.3778 14.6529 31.3435 13.8599 33.656 13.8599C35.9686 13.8599 37.9238 14.6529 39.5216 16.2391C41.1404 17.8042 41.9498 19.7451 41.9498 22.0616C41.9498 24.3782 41.1404 26.3295 39.5216 27.9155ZM29.2411 26.4755C30.4395 27.6651 31.9111 28.2599 33.656 28.2599C35.4009 28.2599 36.8726 27.6651 38.0709 26.4755C39.2693 25.2651 39.8684 23.7938 39.8684 22.0616C39.8684 20.3294 39.2693 18.8686 38.0709 17.679C36.8726 16.4685 35.4009 15.8634 33.656 15.8634C31.9111 15.8634 30.4395 16.4685 29.2411 17.679C28.0428 18.8686 27.4436 20.3294 27.4436 22.0616C27.4436 23.7938 28.0428 25.2651 29.2411 26.4755Z" fill="#D4DEFE"/>
<path d="M56.3588 14.2357V29.8878H54.2775V16.2392H47.8443V29.8878H45.763V16.2392H43.0825V14.2357H45.763V13.6095C45.763 9.60263 47.9704 7.59912 52.3853 7.59912C53.2683 7.59912 54.2775 7.72433 55.4127 7.97477V9.85305C54.4246 9.6861 53.4155 9.60263 52.3853 9.60263C50.8086 9.60263 49.6523 9.90521 48.9165 10.5104C48.2017 11.1157 47.8443 12.1487 47.8443 13.6095V14.2357H56.3588Z" fill="#D4DEFE"/>
<path d="M67.7942 30.2634C65.4186 30.2634 63.4423 29.4807 61.8656 27.9155C60.2889 26.3295 59.5005 24.3782 59.5005 22.0616C59.5005 19.7451 60.2889 17.8042 61.8656 16.2391C63.4423 14.6529 65.4186 13.8599 67.7942 13.8599C69.3499 13.8599 70.7479 14.2355 71.9883 14.9868C73.2288 15.7173 74.1328 16.7086 74.7004 17.9607L72.9975 18.9312C72.577 17.992 71.8938 17.2512 70.9477 16.7086C70.0227 16.1451 68.9715 15.8634 67.7942 15.8634C66.0492 15.8634 64.5776 16.4685 63.3793 17.679C62.1809 18.8686 61.5818 20.3294 61.5818 22.0616C61.5818 23.7938 62.1809 25.2651 63.3793 26.4755C64.5776 27.6651 66.0492 28.2599 67.7942 28.2599C68.9715 28.2599 70.0227 27.9885 70.9477 27.446C71.8728 26.8825 72.598 26.1312 73.1236 25.1921L74.858 26.1938C74.2063 27.446 73.2498 28.4373 71.9883 29.1678C70.7269 29.8982 69.3289 30.2634 67.7942 30.2634Z" fill="#D4DEFE"/>
<path d="M79.6435 10.4791C79.3492 10.7712 78.9918 10.9173 78.5713 10.9173C78.1509 10.9173 77.7934 10.7712 77.4992 10.4791C77.2048 10.1869 77.0576 9.83215 77.0576 9.41468C77.0576 8.99732 77.2048 8.64254 77.4992 8.35037C77.7934 8.0582 78.1509 7.91211 78.5713 7.91211C78.9918 7.91211 79.3492 8.0582 79.6435 8.35037C79.9378 8.64254 80.085 8.99732 80.085 9.41468C80.085 9.83215 79.9378 10.1869 79.6435 10.4791ZM77.5306 29.8878V14.2356H79.612V29.8878H77.5306Z" fill="#D4DEFE"/>
<path d="M90.9984 13.8599C93.332 13.8599 95.2129 14.6842 96.6429 16.3329C98.0939 17.9607 98.8193 19.8912 98.8193 22.1242C98.8193 22.3538 98.7975 22.6772 98.7557 23.0947H84.9119C85.1221 24.6807 85.7949 25.9433 86.9301 26.8825C88.0865 27.8007 89.5055 28.2599 91.1875 28.2599C92.3857 28.2599 93.4157 28.0199 94.2775 27.5398C95.1611 27.039 95.8229 26.392 96.2648 25.5991L98.0939 26.6634C97.4002 27.7694 96.4539 28.646 95.2557 29.2929C94.0575 29.9399 92.6902 30.2634 91.1557 30.2634C88.6751 30.2634 86.6569 29.4912 85.1011 27.9468C83.5454 26.4025 82.7676 24.4408 82.7676 22.0616C82.7676 19.7243 83.5349 17.7729 85.0696 16.2077C86.6043 14.6425 88.5805 13.8599 90.9984 13.8599ZM90.9984 15.8634C89.3584 15.8634 87.9813 16.3538 86.8671 17.3347C85.7738 18.2946 85.1221 19.5469 84.9119 21.0912H96.6748C96.4639 19.4425 95.8229 18.159 94.7511 17.2408C93.6784 16.3225 92.4275 15.8634 90.9984 15.8634Z" fill="#D4DEFE"/>
<path d="M109.193 13.8599C111.106 13.8599 112.609 14.4442 113.703 15.6129C114.817 16.7608 115.374 18.3156 115.374 20.2773V29.8877H113.293V20.2773C113.293 18.879 112.914 17.7938 112.157 17.0216C111.422 16.2494 110.371 15.8634 109.003 15.8634C107.49 15.8634 106.261 16.3434 105.314 17.3034C104.368 18.2425 103.895 19.7033 103.895 21.686V29.8877H101.813V14.2355H103.895V16.6773C105.073 14.799 106.838 13.8599 109.193 13.8599Z" fill="#D4DEFE"/>
<path d="M127.44 16.2391H122.899V25.7243C122.899 26.58 123.067 27.1957 123.404 27.5712C123.74 27.9261 124.245 28.1139 124.917 28.1347C125.59 28.1347 126.431 28.1139 127.44 28.0722V29.8878C125.233 30.2217 123.572 30.0652 122.457 29.4183C121.365 28.7713 120.817 27.5399 120.817 25.7243V16.2391H117.506V14.2356H120.817V10.4791L122.899 9.85303V14.2356H127.44V16.2391Z" fill="#D4DEFE"/>
<path d="M145.26 8.96484H148.886V30.8779H146.048L135.642 16.0083V30.8779H132.015V8.96484H134.853L145.26 23.8344V8.96484ZM160.516 31.2849C158.204 31.2849 156.238 30.4918 154.619 28.9057C153.001 27.3197 152.191 25.3683 152.191 23.0518C152.191 20.7353 153.001 18.7839 154.619 17.1979C156.238 15.6118 158.204 14.8187 160.516 14.8187C162.85 14.8187 164.816 15.6118 166.414 17.1979C168.033 18.7839 168.842 20.7353 168.842 23.0518C168.842 25.3683 168.033 27.3197 166.414 28.9057C164.816 30.4918 162.85 31.2849 160.516 31.2849ZM157.016 26.5892C157.962 27.5283 159.129 27.9979 160.516 27.9979C161.904 27.9979 163.071 27.5283 164.017 26.5892C164.963 25.6501 165.436 24.4709 165.436 23.0518C165.436 21.6327 164.963 20.4536 164.017 19.5144C163.071 18.5753 161.904 18.1057 160.516 18.1057C159.129 18.1057 157.962 18.5753 157.016 19.5144C156.07 20.4536 155.597 21.6327 155.597 23.0518C155.597 24.4709 156.07 25.6501 157.016 26.5892ZM189.47 15.2257H193.065L188.114 30.8779H184.771L181.491 20.3283L178.18 30.8779H174.837L169.886 15.2257H173.481L176.54 26.0258L179.852 15.2257H183.1L186.379 26.0258L189.47 15.2257Z" fill="white"/>
<path d="M194.114 31.2843C194.817 31.2843 195.386 30.7192 195.386 30.022C195.386 29.3249 194.817 28.7598 194.114 28.7598C193.412 28.7598 192.843 29.3249 192.843 30.022C192.843 30.7192 193.412 31.2843 194.114 31.2843Z" fill="white"/>
<path d="M78.3861 10.8295C79.3902 10.8295 80.2042 10.0214 80.2042 9.0246C80.2042 8.0278 79.3902 7.21973 78.3861 7.21973C77.3819 7.21973 76.5679 8.0278 76.5679 9.0246C76.5679 10.0214 77.3819 10.8295 78.3861 10.8295Z" fill="white"/>
</svg>
